<svg xmlns="http://www.w3.org/2000/svg" viewBox="0 0 421.98 90.98"><defs><style>.cls-1{fill:#fff;}.cls-2{fill:#231f20;}</style></defs><g id="Layer_2" data-name="Layer 2"><g id="Layer_1-2" data-name="Layer 1"><rect id="Background" class="cls-1" x="1" y="1" width="419.98" height="88.98"/><path class="cls-2" d="M422,91H0V0H422ZM2,89H420V2H2Z"/><path d="M37.87,72.45c.62,0,1.21,0,1.2-.75C38.66,71.45,37.92,71.88,37.87,72.45Z"/><path d="M37.05,72.08q.35,0,.3-.3A.28.28,0,0,0,37.05,72.08Z"/><path d="M26.11,68a1.35,1.35,0,0,1,1-.07c.28-.87-1-1-1.19-.23C26,67.75,26,67.93,26.11,68Z"/><path d="M35.1,71.1c-.35.08-.64.21-.67.6C34.79,71.91,35.17,71.57,35.1,71.1Z"/><path d="M81.25,23.31a1.56,1.56,0,0,0,1,.37C82.85,22.87,81.33,22.31,81.25,23.31Z"/><path d="M61,67.58c-.15,0-.19-.16-.38-.15a.36.36,0,0,0,.23.6C60.86,67.9,61,67.84,61,67.58Z"/><path d="M72.41,46.08c.73.34,1.06,0,1.8.08a3,3,0,0,1,2.4-.9c1-.36,1-1.69,1.87-2.25.14-1.46,1.61-1.59,1.57-3.22a3.56,3.56,0,0,1-1.2-1.35,3.37,3.37,0,0,0-1.87-.3c-.31.17-.63.55-1.12.3a5.81,5.81,0,0,1-1.43,1.05c-.65-.45-1,.78-1.79.37-.4.28-.82.54-.9,1.13-.36.38-.87.45-1.2.9a9.41,9.41,0,0,0-.83,3.82c.11.56.91,1.09.38,1.79a.71.71,0,0,0,1,.3C70.94,46.91,71.75,46.43,72.41,46.08Z"/><path d="M20.49,66.16c-.32-.27-.94,0-1.27.15a1,1,0,0,0,1.05,1.2A2.76,2.76,0,0,0,20.49,66.16Z"/><path d="M53,39.94a.46.46,0,0,0-.53.45A.38.38,0,0,0,53,39.94Z"/><path d="M46.86,37.84c.35.09.36-.3.08-.3C46.91,37.64,46.83,37.68,46.86,37.84Z"/><path d="M10.47,10.22V65.27a2.11,2.11,0,0,1,.73-.38c.44,0,.3.65.75.67.58-.31,1.27.33,2-.07.22-.21,0-.81.3-1a1,1,0,0,1,1.2.68c-.06.46-.35.78-.07,1.19.2,0,.43,0,.52-.07.26-.29-.13-.43-.07-.75,1-1,1.61,1,3.07.67.06-.45-.22-.9,0-1.27.83,0,1.78.62,2.55.45.46-.1.51-.72,1-.6.14.39,0,1,.53,1s.7-.27,1.12,0,.18.78.38,1.27.67,1,1.12.45c.07-.47-.44-.35-.45-.75.21-.59,1.05-.55,1.65-.75.3.22.42.59.82.68s.7-.18,1.05-.15c.2,0,.3.15.45.15.34,0,.63-.24,1.05-.08.25.1.45.55.75.68s1.05,0,1.5.37c0,.34-.13.88.22.9.08,0,.09.06.15.08.75-.68-.87-1.49-.07-2.55a3.41,3.41,0,0,1,1.65,0c1,1.11-.85,2.14-.15,3.22.6,0,.84.53,1.35.45,0,.44-.06.59.15.9.7,0,.88-.61,1.49-.75.42-.08.41.55.75.3s.09-1,.45-1.2a9.31,9.31,0,0,1,2,1c0,.23-.08.27-.07.45.5.06.13-.77.45-.9s1,.09,1.49-.07c.21,1,2,.72,1.5,2.17.38.36.87.11,1.43.07a1.16,1.16,0,0,0,1.42.6c.17-.21-.32-.75.07-1s.53.25.9.22a2.61,2.61,0,0,1,2.25-.3c.84-.3,1.31-1.16,2.1-1.42.09,0,.22.12.45.08s.24-.23.37-.23.22.17.38.15c.31,0,.56-.37.9-.15a1.43,1.43,0,0,1,1.64-.45c.51-.22.87-.58,1.35-.82a4.24,4.24,0,0,1,1.13.45c.66-.08.7-.73,1-1.13s.74-.31.52-.75c-1.1,0-2.33.07-3.14-.07-.06-.46.12-.68.15-1-.15-.41-.64-.46-.68-1,1.1-.57,1.38.9,1.88,1.42.46-.3,1.09.08,1.57-.08.31-1.13,1.53-2.46,2.55-1.94.15,1.11-.94.86-.75,1.87s1.91.41,3,.67A4.7,4.7,0,0,1,65,65.64a3.29,3.29,0,0,1,.75.22c.62-.28.79-1,1.88-.82.26-.49.37-1.13.67-1.58-.17-.59-.73-.62-.82-1.2-.14-.85.68-1.72.45-2.62.14-.33.72-.22.6-.82-1-.62-.86,1.06-1.65,1.12a2.24,2.24,0,0,1-1.13-1.87,3.46,3.46,0,0,0-1.35-.23c-.48-.56-.91-1.18-1.34-1.79a1,1,0,0,1-1-.83,1.33,1.33,0,0,0,.3-1.57c-1-.16-1.21-1-2-1.35-.07-.67.31-.89.45-1.35a2.18,2.18,0,0,1-.08-2.4c-.07-.2-.4-.14-.52-.3.13-.44,0-.48-.08-.9a2.2,2.2,0,0,0-.15-3c.08-1.2-.8-1.44-1-2.32-.54-.24-1.66.05-1.88-.6-.34,0-.32.28-.67.22a1,1,0,0,1-.08-1.42q-.22-.68-1.2-.6c-.44.9-.65,2-1,3a5.83,5.83,0,0,0-1.88.29c-1.39-.59-3.5.23-4.57-.82.28-.9-.51-1.18-.82-1.72-.95-.33-1.43.32-2.1.22-.16-.88.73-1.31.82-2.17.43-.28,1.07-.34,1.13-1a4.91,4.91,0,0,0-1.5-.6A2.31,2.31,0,0,1,45,34.69c.46.09,1.21.45,1.57.15-.22-1.35-2.2-.94-3-1.72.54-.71,2.07.17,2-1.12,0-1-1.78-1.11-1.65-2.33.28,0,.48.19.68,0s0-1,.45-1c.74.3,1.15-.2,2.09-.23a1.55,1.55,0,0,0,.15-2.17c.09-.37.55-.36.68-.68a5,5,0,0,0-.08-1.12c.13-.34.58-.36.83-.67.1-.13.1-.5.22-.68.26-.37.53-.17.53-.52,0-1-1.54-.38-2.48-.53a6,6,0,0,1-1.57,1c-.2-.3-.37-.5-.75-.45a4.13,4.13,0,0,1-.9-2.18c.1-.27.45-.3.6-.52,0-.41-.33-.42-.3-.82,4.76-2.1,11.68-.18,16.93-1.8.46.76,1.51-.15,2.33.37.1.55,0,1.37.37,1.88,1,.11,2.24.72,2.47-.68-1-1.08.42-1.89.6-2.92.35-.11.63-.32,1-.15.75-.67,2.13-.26,3.15-.15,2.67.29,5.69,1.19,7,2.62a3.27,3.27,0,0,1,1.57.68,1.16,1.16,0,0,0,.08.52,1.35,1.35,0,0,1,1.2,1.72A1.45,1.45,0,0,1,79.3,21c-.53.15-.87.78-1.42,1-.36.13-.64-.09-.9.15-.55.49-.21,1.57-.6,2.39,1.22.2,1.82-.31,3.22-.29a2.56,2.56,0,0,0,1.88,1.19c.71-.92-.73-1.44-.83-2.17a2.48,2.48,0,0,1,1.35-2,17.15,17.15,0,0,1,2.55,3.67c0,.23-.25.42-.08.6.84.34.81,1,1.2,1.87a11.93,11.93,0,0,1,1,4c.27,3.58-1.32,7.33-1.58,11.24a20.06,20.06,0,0,0,.75,7.57c.43,1.41.76,3.25,1.65,4.12,2.87,4.45,6,8.93,8.09,14.38a33.59,33.59,0,0,1,1.72,9.52c0,.45.09.91.13,1.36H412.64V10.22ZM26.86,65c-.06-.46.19-.61.6-.6Q27.52,65,26.86,65Zm4.72.82c-1-.16-.56-1.89.37-1.27C32,65.1,31.94,65.6,31.58,65.78ZM41.47,48.7c-.62-.1-.13-1,.3-.52C41.8,48.48,41.74,48.7,41.47,48.7Zm7,16c-.44.06-.58-.53-.3-.75A.5.5,0,0,1,48.51,64.66Zm.3,6.14c-.06-.35-.28-.88-.07-1.27C49.8,69.19,49.88,70.87,48.81,70.8Zm.08-11.38c-.51-.58.38-1.35.9-.9C49.84,59.17,49.42,59.35,48.89,59.42Zm3.52,3.82c-.3.16-.55,0-.83-.08.27-1.36,2,.31,2.93-.45.06.19.2.3.22.53A1.35,1.35,0,0,1,52.41,63.24Zm.52-1.73c.54.06,1.32-.37,1.2.45a3.89,3.89,0,0,0-1.2.45C52.58,62.28,52.71,61.68,52.93,61.51Zm.6,5.55c-.44-1,.79-1.53,1.57-1C55.19,67,54.22,66.87,53.53,67.06ZM43.79,34.17c.11,0,.19.11.3.15-.08.14-.09.36-.37.3S43.7,34.29,43.79,34.17Zm0,8c.74-.16,0-.76.23-1.2.48-.07.45.39.75.52s.43-.17.82-.07c.62.64.16,2.05-.37,2.62a2.4,2.4,0,0,0,.3.67c.53,0,.72.28,1,.45,1.7.08,2.06,1.49,2.85,2.47a12.32,12.32,0,0,0,5.32,1.73c.21,0,.32-.18.52-.23s.63.17,1,.23c.5.72.91,1.54,1.87,1.8.15,1,.14,2.1.9,2.77,1-.14.64,1,1.57.9.13.75.08,1.67.53,2.09a3.26,3.26,0,0,0,0,1.73c.26.67,1.07.63,1.65,1.12s.45,1.09,1,1.12c1.32-.49,2.9,1.05,1.94,2a2.49,2.49,0,0,1-2,.3c-.33-.18-.33-.59-.67-.68-.5-.12-.92.38-1.43-.07-.16-.21-.16-.59-.3-.83-.22,0-.45.05-.52.23,0,.45.44.4.52.75-.25.56-.43,1.47-1,1.5-.82,0-.5-1.23-1.05-1.73,0-.32.18-.47.15-.82-.22-.47-.57-.07-.9-.08-.94,0-1.93-.42-2.85-.45-.2-.22-.52-.54-.3-1,.78-.22,2,0,2.1-.67s-.69-.67-1.35-.83c-.17-.32,0-.51-.15-.82-.6.31-.75,1.32-1.72,1-.22.76-.89,1.58-1.87,1.12a1,1,0,0,1,.22-.82c.7.22,1-.33,1.28-.75a1.09,1.09,0,0,0-1.73-.23,2.85,2.85,0,0,1-1.2-.75c-.54.48-.91.31-1.64.45a6.25,6.25,0,0,0-1.73-1.05c0-.24-.13-.31-.07-.59a17.84,17.84,0,0,1-2.4-.9c-.11-1.26.44-1.75.3-2.63-.22-1.33-2-2.09-2.17-3.22-.05-.27.13-.5.15-.75,0-.67-.43-1.36-.15-2.17-.13-.45-.55-.65-.3-1.27-.85-.77-1.84.16-2,1-.5,0-1-.06-1.05-.45.32-.8,1.28-1,1.79-1.57-.23-.61-.76-.93-1-1.5-.07-.42.37-.64.15-1-.48.27-2.11-.15-1.13-.83.4.13.83.23,1,.6a1.8,1.8,0,0,0,.67-1.57c-.11-.6-1.31-1.16-.6-1.95,1.07.31,2.73.31,2.25,1.95-.2.18-.37-.07-.68,0-.35.86.6,1,1.2,1.2A1,1,0,0,0,43.79,42.19ZM46.34,25.7c.24,0,.51.28.3.53C46.28,26.31,46.33,26,46.34,25.7Z"/><path d="M25.14,68.78q0,.56.75.45A.46.46,0,0,0,25.14,68.78Z"/><path d="M43.19,43.53a.37.37,0,0,1,.23.08c.14-.09.28-.56-.08-.53C43.28,43.22,43.13,43.27,43.19,43.53Z"/><path d="M82.9,24.13c-.1.18-.27.27-.23.6a1,1,0,0,0,1,.37A1.76,1.76,0,0,0,82.9,24.13Z"/><path d="M23.49,67.36c-.48-.09-.51.6-.38.9a.32.32,0,0,1,.23.07C23.6,68.24,23.64,67.62,23.49,67.36Z"/><path id="Address" class="cls-1" d="M153.71,43.76a11.59,11.59,0,0,0-5.92-1.58h-2l.22-3a4.28,4.28,0,0,1,.37-1.63c.43-.71,1.4-1.06,2.91-1.06.57,0,1.44,0,2.59.12l6.36.45V30.47H137.56V44.63h9.22c1,0,1.62,0,1.85,0a4.71,4.71,0,0,1,2.17.74,3.89,3.89,0,0,1,1.77,3.41,4.45,4.45,0,0,1-1.4,3.33A4.58,4.58,0,0,1,148,53.48a5.34,5.34,0,0,1-3.67-1.9l-5.14,3.51V53.77h-3.3L135,30.47H126L105.67,54v4.29h18.66L124,64.13h12.21L136,58.26h1.84c.16.34.31.63.44.86a10.63,10.63,0,0,0,4,4.1,11.54,11.54,0,0,0,5.8,1.57A10.81,10.81,0,0,0,156,61.46a11,11,0,0,0,3.31-8.11A10.53,10.53,0,0,0,153.71,43.76Zm-29.28,10H118l7.13-13Zm67.18-21.13c-1.89-1.44-4.52-2.17-7.91-2.17H170.88l-1.26,33.66h12.3l-.32-12.26a12.48,12.48,0,0,0,3.43.57,10.72,10.72,0,0,0,11-10.92A10.67,10.67,0,0,0,191.61,32.64Zm-5.81,9.18a5,5,0,1,1-7.38-6.64,4.67,4.67,0,0,1,3.6-1.65,4.86,4.86,0,0,1,3.41,1.28,4.77,4.77,0,0,1,1.65,3.65A4.84,4.84,0,0,1,185.8,41.82Zm34.91-10.36a16.56,16.56,0,0,0-6.87-1.5,17.27,17.27,0,0,0-12,4.46A16.56,16.56,0,0,0,196,47.14a16.93,16.93,0,0,0,4.49,11.76,17.17,17.17,0,0,0,5.89,4.23,17.67,17.67,0,0,0,7.13,1.49A17.36,17.36,0,0,0,231,47.29a16.6,16.6,0,0,0-4.51-11.59A17.6,17.6,0,0,0,220.71,31.46Zm-3.4,10.6a5,5,0,1,1-7.44-6.7,4.71,4.71,0,0,1,3.64-1.66A4.93,4.93,0,0,1,216.94,35a4.83,4.83,0,0,1,1.65,3.67A4.9,4.9,0,0,1,217.31,42.06Zm37.95,5.5a9.38,9.38,0,0,0,2.19-6.36A10.66,10.66,0,0,0,254.74,34a9.85,9.85,0,0,0-5-3.1,18.69,18.69,0,0,0-4.49-.4H232.63l-1.41,33.66H243.5l-.27-9.64q0-.57,0-1.14c0-1.76.64-2.63,1.93-2.63a1.59,1.59,0,0,1,1.43.79,18,18,0,0,1,1,3.47l2.1,9.15h11.24L254,48.87A15.62,15.62,0,0,0,255.26,47.56Zm-7.15-5.67a5.19,5.19,0,0,1-9.05-3.48,5.19,5.19,0,0,1,5.1-5.17,5.05,5.05,0,0,1,3.55,1.33,5.17,5.17,0,0,1,.4,7.32Zm26.29-8,1.39,30.28H263.7l1-30.28h-7.86V30.47h25.61v3.38Zm88.24-3.38-.59,15.71L362,47a8.15,8.15,0,0,1-.15,1.28c-.16.72-.48,1.08-.94,1.08a1.44,1.44,0,0,1-.88-.46,24.52,24.52,0,0,1-1.63-1.95L345,30.47h-9.82L334,62.75,324,30.47h-9.79l-9.31,29.46-.08-3.64-5.35.29q-2.5.15-2.88.15c-2,0-3.12-.91-3.35-2.74q-.11-.74-.15-3.27l-.17-20.25h-9.2l-2.15,33.66h34.24l1.23-8a8.33,8.33,0,0,1,.47-2,1.66,1.66,0,0,1,1.53-1,1.55,1.55,0,0,1,1.48.84,7.1,7.1,0,0,1,.54,2.17l1.09,8H346l-.69-14.65c-.05-1.08-.08-1.63-.08-1.65,0-1.54.4-2.32,1.19-2.32a1.45,1.45,0,0,1,1.06.62c.24.28.89,1.15,1.94,2.61l11,15.39h13l-1.63-33.66Zm-39.76,14.8a5,5,0,0,1-7.1.37,5,5,0,0,1,3.28-8.76,4.89,4.89,0,0,1,3.43,1.29,5,5,0,0,1,.39,7.1Zm74.93-9.52a16.25,16.25,0,0,0-7.37-4.66,20,20,0,0,0-5.42-.62H375.8l-1.19,33.66H385a21.28,21.28,0,0,0,5.1-.52,15.85,15.85,0,0,0,8.36-5.52,16.65,16.65,0,0,0,4-10.83A16.26,16.26,0,0,0,397.81,35.75Zm-6.28,5.84a4.9,4.9,0,0,1-8.36-3.45,4.62,4.62,0,0,1,1.48-3.5A4.69,4.69,0,0,1,388,33.26a4.85,4.85,0,0,1,3.46,1.38,4.61,4.61,0,0,1,1.48,3.5A4.7,4.7,0,0,1,391.53,41.59Z"/></g></g></svg>